<?xml version="1.0" encoding="UTF-8"?>
<svg width="250px" height="118px" viewBox="0 0 250 118" version="1.1" xmlns="http://www.w3.org/2000/svg" xmlns:xlink="http://www.w3.org/1999/xlink">
    <!-- Generator: sketchtool 51.3 (57544) - http://www.bohemiancoding.com/sketch -->
    <title>B4A87C03-FFAC-4C3D-9517-28B40A108FDE</title>
    <desc>Created with sketchtool.</desc>
    <defs></defs>
    <g id="Production-Ready" stroke="none" stroke-width="1" fill="none" fill-rule="evenodd">
        <g id="02-CARNEGIE-PROD-Wrapper-Menu-3-Grants-Default" transform="translate(-225.000000, -41.000000)" fill="#20386D">
            <g id="Header">
                <g id="Logo" transform="translate(225.000000, 41.000000)">
                    <g id="CCN-Logo-Blue">
                        <path d="M171.787273,60.049006 C171.611184,60.6052154 171.869402,61.1439997 171.787273,61.6465397 C171.674521,62.3344829 171.162262,62.6795 170.904044,63.334684 C169.397892,63.8658012 166.570029,63.8734683 164.08112,64.0435373 C161.972924,64.1836352 159.811136,64.7321775 158.943916,63.0663374 C158.822115,62.8293559 158.788011,62.6990161 158.769915,62.4453066 C158.721195,61.7622424 159.050404,61.0575712 159.122093,60.4058722 C160.459812,58.070211 163.537541,57.5460638 166.914551,57.0344627 C170.329145,56.5165886 172.127619,54.9037208 175.240148,55.0807598 C175.596502,55.3769866 175.793471,55.8314334 176.129641,56.1478733 C175.672366,58.3699228 172.422725,58.064635 171.787273,60.049006 Z M152.390344,94.8211534 C152.167623,97.883093 150.287717,100.015926 149.112863,102.362739 C148.64654,103.296725 148.384147,104.396598 147.784887,105.287369 C147.205812,106.148866 146.335808,106.894661 146.013558,107.768704 C145.887581,108.117206 145.904981,108.796785 145.749772,109.277021 C145.170697,111.03626 143.265039,112.472089 141.319708,113.180245 C140.907674,113.330101 140.411424,113.403286 139.991733,113.537111 C139.370202,113.734363 139.352802,113.987376 138.839151,113.800579 C138.474445,113.664663 138.111827,112.977417 138.043619,112.118011 C137.905114,110.38944 138.611558,109.139711 139.018024,107.414626 C139.434234,105.644932 139.465554,104.004881 140.078734,102.803943 C140.395415,102.187094 141.106035,101.691524 141.586278,101.030067 C144.207428,97.4035541 146.800738,93.2068916 150.350357,90.470453 C150.953793,90.0118242 151.809877,89.8333911 152.390344,89.319699 C152.9903,88.7948548 153.191445,87.8699302 154.074673,87.5465202 C154.560484,87.3666931 155.027503,87.5757944 155.402649,87.4580006 C155.825819,87.3255698 156.089604,86.7526324 156.551751,86.6585368 C155.439537,89.2994858 154.337067,92.7162006 152.390344,94.8211534 Z M143.088254,62.177657 C140.399592,63.8929844 139.904733,56.9382761 143.088254,58.3664378 C143.403544,59.4098531 144.120428,61.526655 143.088254,62.177657 Z M62.049752,59.4272783 C61.4727649,59.5687701 60.8804657,59.223753 60.7169048,58.896858 C60.0640532,57.5460638 62.2133129,55.1853105 63.3770312,56.7661161 C63.0596534,57.7551651 62.9260207,59.220965 62.049752,59.4272783 Z M243.26686,63.9522298 C242.970362,63.986383 242.453927,63.8114349 241.934708,63.8658012 C241.480218,63.9111065 240.468924,64.4011005 239.7242,64.483347 C238.973908,64.5690785 238.119912,64.3990095 237.153163,64.483347 C236.027724,64.5830186 234.773526,64.8632143 233.522807,65.0186462 C232.178128,65.1824422 230.820224,65.1908063 229.534009,65.2855989 C226.951139,65.470305 224.523478,65.8376262 224.134412,63.4211125 C224.004259,62.6153756 224.335557,61.7936076 224.221413,61.202548 C222.352643,60.7934066 222.049185,63.1792521 220.415664,63.0663374 C219.945166,63.0314872 219.149633,62.3254219 219.086993,61.7371503 C218.926912,60.2894725 220.572961,58.3845599 221.739463,57.5648829 C223.253967,56.5103155 225.082369,55.8976488 226.793843,55.8795267 C227.538567,57.417815 225.640564,58.0994852 226.081135,59.6043173 C227.670111,59.3415467 228.778149,57.7802572 229.712186,56.5026485 C231.05269,54.6792854 232.830979,53.2901559 232.815667,50.3794663 C231.4863,49.016823 229.913331,50.5997196 228.565172,51.2667526 C227.379878,51.8571152 226.267664,52.3896265 225.377475,52.7799488 C224.908368,52.977201 224.269437,53.0538715 223.780146,53.3082781 C221.97332,54.2436577 220.554169,55.7819461 219.171905,57.3899349 C218.066651,58.6807867 215.683534,61.0575712 216.073297,63.0663374 C216.254258,63.988474 217.333759,63.9801099 217.492448,64.8416072 C217.674801,65.8445963 217.037262,66.7632478 216.160297,67.1466002 C214.726529,67.774601 211.024485,67.6365942 210.048688,67.3236393 C209.619254,67.1835414 209.193995,66.6656673 208.723497,66.4342618 C205.839953,65.0500114 200.671429,64.9545219 200.306027,61.5580202 C200.090266,59.4983727 201.616602,59.0439259 201.548394,56.589077 C201.037527,56.0447167 200.136202,55.5916639 199.422799,55.7045786 C198.648842,55.8223723 198.363481,56.7870262 197.741253,57.2115018 C197.326435,57.4944855 196.732048,57.5899751 196.32419,57.9217491 C195.061639,58.9372843 194.348931,60.6491267 193.043924,61.024812 C192.166263,63.7751907 187.616487,62.7540795 185.25077,62.0013149 C184.701623,61.3970122 183.977083,60.9704456 183.215655,60.5801233 C182.500859,61.2297312 181.470774,61.2882796 180.467136,61.6465397 C179.587387,61.9594946 178.631774,62.6153756 177.721401,62.7087742 C177.248119,62.7624435 176.754652,62.5679793 176.306426,62.6230427 C175.409277,62.7268963 174.695177,63.3576851 173.73678,63.2433764 C175.419717,61.8800362 178.716687,60.6254285 179.137769,57.9217491 C179.563027,55.2250397 177.669897,52.9548969 175.684894,52.5980307 C171.057861,52.4955711 167.446994,53.5738367 163.637765,55.2577989 C162.217221,55.8899817 160.957455,56.5284376 159.743624,57.2972333 C157.370251,58.8013684 154.51942,60.5891843 154.60642,63.9522298 C154.061449,64.323733 152.942275,64.2902768 152.390344,63.9522298 C151.732621,64.8924885 150.435966,64.0205362 149.292432,63.9522298 C148.796181,63.9229556 148.262346,64.0832666 147.784887,64.0435373 C147.168924,63.988474 146.738098,63.9675639 146.278735,63.6866711 C145.476939,62.2292353 146.723482,61.0659352 146.988659,59.872664 C147.81064,56.1534494 145.044721,54.3070851 142.470899,53.2183645 C141.513894,53.8867916 140.358527,54.3593604 139.370202,54.9936343 C139.033336,56.9954305 137.232078,58.236795 137.157606,60.2260451 C137.092182,62.0061939 138.532909,62.9053294 138.397189,64.9273387 C135.216452,66.3122861 129.470244,66.3227412 126.084882,65.1085598 C125.329022,63.9494417 123.790854,64.1195108 123.072578,62.7087742 C122.568671,61.7197252 123.013418,58.6584826 122.099565,58.1866107 C120.632389,57.4310581 118.790763,59.6503196 118.026551,60.3124736 C116.768872,61.4060733 115.28708,61.8326399 113.86236,62.5338261 C112.758498,63.0760954 110.85632,65.0451324 109.612561,64.6617801 C107.876728,64.1285718 109.881915,61.1795469 109.612561,59.7834474 C109.322328,58.2730392 106.304455,57.2226539 104.296484,57.2972333 C103.484248,57.3306895 102.581531,57.7189209 101.72823,57.9217491 C100.805329,58.1392144 99.8643324,58.2953434 98.9811036,58.4514723 C95.34866,59.1010803 92.8026782,61.036661 90.0353673,62.4453066 C88.6183036,63.169494 87.3188646,64.1243898 85.8746568,64.5732605 C86.1168661,62.1239876 87.7114107,59.1554466 87.2019359,56.3242154 C87.1490397,56.0314736 86.8595021,55.7791581 86.7599736,55.437626 C86.6430449,55.0473036 86.7203013,54.5907659 86.5831886,54.284084 C86.2553708,53.5668666 85.369358,53.0022932 84.809771,52.5095112 C84.1242073,51.9066025 83.5235561,51.1733541 82.5971751,51.0897136 C80.5745881,50.9098865 79.4832542,52.5325123 78.4350726,53.5738367 C79.1011482,55.2808 77.7070526,56.6148662 76.662351,57.8353206 C75.7645061,58.8766449 74.7184125,59.5834072 74.0050086,60.3124736 C73.5790543,60.7529803 73.2825567,61.4200134 72.9415149,61.5580202 C72.0255739,61.9239474 70.6781106,61.8103357 69.6640331,61.9100073 C68.5427711,62.0278011 67.4904134,62.1323517 66.2981589,62.177657 C63.7375611,57.9991166 71.7847566,57.3899349 69.3111592,52.9521089 C68.1843291,52.6921263 66.9948587,52.4579329 65.7685001,52.4216887 C64.6145258,52.3826564 62.9545569,52.2265275 61.6933981,52.5095112 C60.8261774,52.7053694 59.6701151,53.791999 58.7701822,54.4639111 C57.7581928,55.2145846 56.7816995,55.8502525 55.9374469,56.589077 C54.1702934,58.1364264 52.6349091,60.2769264 50.8002432,61.2924616 C49.103386,62.2320233 45.5391507,62.6014355 42.9186966,62.3595751 C41.4515206,62.2187802 40.9100297,61.522473 39.9940887,61.024812 C39.3878695,60.698614 38.7030018,60.6526117 38.0452782,60.1375256 C37.1724895,60.5731532 36.2802127,60.0531881 35.4735443,60.049006 C34.9292694,60.046915 34.485915,60.2811084 33.9694802,60.2260451 C33.3006206,60.1549507 32.7403375,59.6008323 32.0227577,59.4272783 C31.5961074,59.3248186 31.1270008,59.4307633 30.783175,59.3415467 C30.2611721,59.2056309 29.858882,58.6333904 29.2784148,58.4514723 C28.8107003,58.3113745 28.2726894,58.4256832 27.8592631,58.2730392 C27.3129002,58.0799691 27.0108346,57.573944 26.4401115,57.2115018 C26.1018536,56.9933395 25.5965549,56.9619743 25.2889213,56.7661161 C24.8560069,56.4921934 24.5977895,55.9025278 24.139123,55.7045786 C23.5175917,55.43205 22.8730922,55.6530003 22.3684895,55.5261455 C22.8730922,54.9643601 22.653851,54.2276266 22.9002363,53.3967976 C22.9941969,53.0817517 23.2169181,53.0866307 23.2551983,52.7799488 C23.3595988,51.8954505 22.8786602,51.0214072 22.9002363,50.2045182 C22.9419966,48.4620076 24.2463076,47.6193295 24.6708699,46.1263464 C23.9839142,43.4575172 26.3691191,42.4064348 26.531288,40.0045582 C27.1688274,39.2420355 27.9079834,38.4718459 28.2135291,37.4326125 C28.3304577,37.0269561 28.2615533,36.5941165 28.389618,36.192642 C28.7369239,35.1074064 30.048891,34.2542732 30.6926945,33.1732197 C31.35529,32.0635889 31.4596906,30.2318618 32.2851511,29.5376456 C32.6602971,29.2232966 33.2435483,29.2428128 33.6145183,29.0044373 C34.8339169,28.2230956 34.9605895,26.8053889 35.5654168,25.5479933 C36.5384301,25.4852629 36.6651028,24.5777634 37.5135313,24.3909663 C37.5650356,23.5852294 38.1719509,23.3384899 38.2234552,22.529965 C40.8209412,20.3587968 42.452374,17.3107972 44.8661151,15.1682062 C46.14189,14.0341803 47.9264436,13.3776023 48.6711677,11.7967967 C53.0664314,9.92743135 55.8650625,5.99423644 62.1388405,6.3002213 C62.7408837,9.8047586 58.8926789,10.9861808 57.5299035,13.2158973 C57.2786462,13.6292209 57.243846,14.151277 56.9981567,14.5485694 C55.7933742,16.4841502 53.7784433,17.4285909 52.3050033,18.9822134 C52.2910832,19.8193155 51.2964938,20.1943038 51.8609529,20.8446087 C53.2675765,20.8243956 53.6239304,19.7119768 54.8690812,19.242196 C56.7357633,16.617278 58.9942955,15.3898536 60.9848662,13.3044169 C62.0323519,12.2101202 62.3330255,10.4676096 63.2886387,9.40258716 C63.7375611,8.8993501 64.4850691,8.69861288 65.0599682,8.24974215 C66.9962507,6.73515194 70.009947,2.32241812 67.1869557,0 C65.2242251,0.0160310975 64.1482033,1.14378395 62.5759308,1.77526979 C59.8900523,2.85074733 56.9035002,3.81191617 55.1377386,5.67849352 C53.2132882,5.9545072 52.4588201,6.89755393 51.0640286,7.89357298 C50.1313835,8.56269705 48.9857614,8.84637778 48.4066862,9.31406762 C47.8477952,9.77060539 47.5784417,10.5763423 47.078015,11.0907314 C45.4751184,12.7272974 43.371099,14.0049061 41.6763298,15.7000204 C39.9718166,17.4097718 38.2248472,19.0031235 37.1599614,21.1993839 C35.4867684,22.1222175 34.6578279,23.7713295 33.3514288,25.1911271 C32.8496101,25.7368815 32.1946706,26.1021117 31.8438847,26.6116218 C31.339282,27.3462642 31.0963766,28.2718859 30.604302,29.0957449 C29.2109025,31.417466 27.0720829,33.3767449 25.7343637,35.6580398 C24.1892353,38.2899278 23.0582292,40.9420289 21.7483501,43.5509157 C21.0349463,44.9748954 20.3702627,46.2378671 19.8879321,47.6304815 C19.313033,49.2970187 19.3902894,50.8722482 19.2677927,53.0406284 C19.2309045,53.6825693 18.9712951,54.3412383 19.0026153,54.9936343 C19.0589916,56.1673894 19.7529073,57.1954707 19.8879321,58.4514723 C20.9249777,59.377791 22.4993382,60.4581475 23.7848571,61.024812 C24.8970711,61.5148059 26.1450059,61.6374787 27.2398198,62.2682675 C27.8035828,62.5951625 28.193345,63.2775297 28.8336684,63.5981516 C30.053067,64.2059393 31.6329956,64.3474312 32.9971629,64.3976155 C34.5276752,64.4533758 36.4535176,63.8790443 37.7801008,64.1285718 C38.3598719,64.2421835 38.8101863,64.7126614 39.3725574,64.8416072 C40.8522614,65.1775632 42.2066847,64.6011407 43.9801023,64.5732605 C44.8661151,64.5600175 45.8370403,64.8457892 46.7244451,64.5732605 C47.2172158,64.4241016 47.6814503,63.8434971 48.4066862,63.8658012 C49.6253888,63.9027425 50.6359863,65.1754722 51.7725604,65.2855989 C54.9908818,65.5880987 56.0717757,62.9464526 59.4787141,63.334684 C60.196294,64.0560834 60.4002231,64.6053227 61.1616512,64.8416072 C62.2829132,65.1824422 63.6025364,64.7698157 64.7961828,64.7502996 C65.3961381,64.7461176 66.1909744,64.9370967 66.6531209,64.8416072 C67.4368211,64.6729321 67.8864395,63.9612908 68.6026274,63.8658012 C69.0445898,63.8044649 69.5554566,63.9752309 70.0224751,63.9522298 C71.492435,63.8748623 74.7462526,63.0314872 75.6865537,62.4453066 C76.109028,62.187415 76.5551664,61.5127149 77.1927058,60.9348984 C77.7244527,60.4581475 78.2909998,59.9130902 78.70025,59.4272783 C79.9628008,57.9224461 81.8837712,55.2891641 83.0377454,57.6561905 C83.9843106,59.5910742 83.1261379,62.2543274 82.4217821,64.3976155 C81.8726351,66.0530005 79.4832542,69.9917715 83.3940994,69.3651647 C84.069919,69.256432 85.0867805,68.5259716 85.8746568,68.0331896 C91.4566069,64.5370163 96.1490643,60.3354748 105.005712,60.4936947 C108.247002,62.8600241 103.180094,65.7017104 103.322079,68.8326534 C104.986224,69.3449515 106.06155,68.1990766 107.308093,67.8561505 C108.042377,67.6547163 108.824685,67.7230227 109.522777,67.4999813 C111.021969,67.0190484 112.289392,65.7707138 113.597879,64.9273387 C115.008678,64.0205362 116.461934,63.3165619 118.467817,63.1534629 C118.871499,63.8177079 119.264045,64.483347 119.442918,65.3727244 C121.763395,66.3882596 123.362811,67.7864501 125.820401,68.3015362 C128.753361,68.9072329 131.787937,68.5489727 134.409783,68.3015362 C135.787175,68.1684084 136.983605,67.9537311 138.129227,67.4999813 C139.215689,67.0692327 140.248559,66.4210188 141.410885,66.1707942 C142.604531,65.9122057 143.708393,66.130368 144.775367,66.0801837 C145.37045,66.0530005 145.846517,65.796503 146.458304,65.9059326 C146.890523,65.9798151 147.274021,66.3471363 147.784887,66.4342618 C148.61174,66.5792387 150.873752,66.6970324 151.330331,66.5241754 C151.668588,66.3980176 152.001974,66.0620616 152.390344,65.9944522 C152.853883,65.9122057 153.277053,66.1024878 153.719712,65.9944522 C154.49506,65.796503 154.854894,65.0820736 155.579434,64.9273387 C156.020004,65.4333638 156.721576,65.6766182 157.262371,66.0801837 C159.668456,66.1415201 161.782219,66.9416809 163.994119,66.3471363 C165.416055,65.967269 166.975103,64.9503398 168.779145,65.7261055 C167.973173,66.6656673 167.06628,67.4999813 166.83103,69.0076015 C166.204627,69.5589318 165.980514,70.1869327 165.503055,70.6957458 C164.976876,71.2415001 164.520298,71.7565862 164.08112,72.2904914 C162.31675,74.4365675 161.343737,77.2427066 159.298878,78.9454879 C158.846475,79.3169912 158.183184,79.4257238 157.792726,79.8292893 C157.193466,80.4558961 157.106466,81.1640524 156.551751,81.6923816 C155.447889,82.751828 153.952177,83.5457159 152.74809,84.4448513 C151.470227,85.3872011 150.237605,86.3727651 149.02447,87.2809616 C142.885717,91.8686435 138.220404,98.5661572 136.09272,107.326106 C135.654934,109.134135 135.091171,111.283696 135.292316,113.180245 C135.804575,117.862022 141.968384,119.319458 145.130329,116.726603 C147.871888,114.481552 149.101031,110.611087 150.975369,107.414626 C151.981094,105.697905 153.170565,104.100371 153.984889,102.269341 C155.447889,98.9885417 156.585855,95.1598975 158.146295,92.1599912 C158.384329,91.7118175 158.781051,91.2490067 158.943916,90.8273191 C159.254333,90.0578265 159.239021,89.3406091 159.477055,88.7021532 C160.242659,86.6355356 161.201752,85.383019 162.313966,83.3784348 C162.407926,83.0125076 161.764819,83.3895869 161.957612,82.9330491 C162.071757,82.4298121 162.399574,82.1398583 162.664752,81.7815981 L162.664752,80.7172727 C163.178403,80.4858673 163.223643,79.8460174 163.463764,79.3859946 C164.147936,78.0693536 164.81958,76.3512381 165.677056,75.1286927 C165.98817,74.688186 166.44962,74.4142634 166.74055,73.9786357 C167.850676,72.2904914 168.620456,70.6818057 169.754246,69.0076015 C170.213609,68.3245373 170.75858,67.6003499 171.434399,66.7040025 C171.855482,66.1401261 172.778383,64.5851096 173.207121,64.3976155 C174.378495,63.8790443 175.824791,64.7370565 177.191046,64.3976155 C178.364509,64.1027827 179.049376,63.0858535 180.467136,63.1534629 C183.578969,65.9080236 190.317677,65.6675572 195.525178,64.9273387 C195.695002,65.3225401 195.775043,65.807655 195.968532,66.1707942 C196.700728,66.5680867 197.386292,66.6865774 198.18252,67.2330287 C198.726795,67.610108 199.003804,68.3900557 199.60028,68.6528263 C200.198843,68.920476 201.263033,68.8800497 202.171317,69.098212 C202.996082,69.2954642 203.857039,69.5219906 204.647699,69.7192428 C209.180075,70.8449047 213.792492,71.0121857 216.337082,68.0331896 C218.301901,68.26111 220.249319,66.0718196 222.098601,67.4999813 C223.535153,66.8378273 224.717663,67.6505342 226.081135,67.767631 C227.216317,67.8610295 228.538028,67.9000618 229.62797,67.5912889 C230.513983,67.3354883 231.253835,66.7479138 232.106439,66.7040025 C232.815667,66.6656673 233.631384,66.94656 234.407428,66.8782535 C235.844675,66.7597628 237.515085,65.6480411 239.459023,65.5497635 C240.329028,65.5037612 241.270025,65.7755928 242.113581,65.7261055 C243.305836,65.6564051 244.056128,64.8234851 244.948405,64.5732605 C246.817175,64.0470223 249.518365,64.9071256 250,62.5338261 C247.579995,61.5475651 245.251166,63.7410375 243.26686,63.9522298 Z" id="Fill-1"></path>
                        <path d="M203.94515,52.7904201 C202.640997,53.2574633 200.668513,53.0691021 201.047537,50.9230195 C201.659306,50.188874 203.049926,49.4832915 203.773517,50.5285417 C203.94515,51.1268202 204.079726,52.1419635 203.94515,52.7904201" id="Fill-3"></path>
                        <g id="Group-7" transform="translate(0.000000, 19.000000)">
                            <path d="M243.552898,61.7471778 C157.822943,58.0444 80.1061705,56.668 4.94585227,58.9599333 C37.4505341,55.9260667 78.2352727,55.0022667 120.196341,55.3501556 C145.31725,55.5595778 167.547591,56.6955556 197.118034,58.0361333 C213.75717,58.7890889 231.293284,58.4549778 243.552898,61.7471778" id="Fill-4"></path>
                            <path d="M0.0540681818,34.2584444 C-0.00346590909,34.1241111 0.000693181818,34.0393778 0,34.0076889 L0,33.8644 L0.0866477273,33.7528 C0.13725,33.6818444 1.97140909,31.3148222 7.91752273,29.2619333 C13.7568864,27.2462444 18.8476136,24.5719778 21.2772159,23.5489778 C22.3606591,23.0956889 23.9487386,21.8632667 25.2172614,20.7541556 C26.4941023,19.6429778 27.4784205,18.6599333 27.4791136,18.6558 L27.5345682,18.6013778 L27.6080455,18.5669333 C27.6087386,18.5634889 28.7871477,18.0399333 30.6268523,16.9280667 C32.4658636,15.8182667 34.9536932,14.1332444 37.5260909,11.8406222 C42.7485227,7.19337778 44.4946477,6.88268889 45.8657614,5.26035556 C47.5030568,3.3914 52.6644886,0.629644444 52.6845909,0.608977778 L53.0284091,0.509777778 L55.22025,0.874888889 L54.29,1.89651111 C54.2858409,1.89788889 50.9987727,4.27937778 50.0130682,4.93451111 C49.3365227,5.37953333 44.8128182,8.90182222 42.3513295,11.0539111 C41.5368409,11.7614 40.9171364,12.3724444 40.8256364,12.5308889 C40.5566818,12.9276889 40.0596705,13.2742 39.3942159,13.7206 C38.7315341,14.1532222 37.9149659,14.6368222 37.0928523,15.1293778 C35.4576364,16.0924444 33.7468636,17.1650444 33.3566023,17.7168444 C32.7084773,18.5524667 31.0101818,19.5534222 29.1295795,20.7266 C28.4391705,21.4947111 26.817125,22.4798222 24.1837273,24.2061778 C21.7374886,26.5849111 12.0565114,30.2511778 10.3270227,30.4833333 C9.87714773,30.5267333 8.45473864,31.0351333 6.94152273,31.6668444 C5.41444318,32.2964889 3.73347727,33.0522 2.57101136,33.6053778 C1.81128409,33.9636 1.22069318,34.2791111 1.19435227,34.3080444 C0.978772727,34.4706222 0.815181818,34.5725778 0.563556818,34.5822222 C0.555931818,34.5836 0.545534091,34.5836 0.538602273,34.5836 C0.307079545,34.5836 0.0921931818,34.3872667 0.0540681818,34.2584444" id="Fill-6"></path>
                        </g>
                        <path d="M19,86.7536298 C17.9187743,85.5619467 16.0182393,84.756311 14.2855058,84.756311 C10.7821012,84.756311 7.89445525,87.4770577 7.89445525,90.5838519 C7.89445525,92.0622755 8.60286965,93.4558608 9.77675097,94.497597 C10.9499027,95.5051348 12.6271887,96.243689 14.2855058,96.243689 C15.9058852,96.243689 17.9559825,95.4551525 19,94.3127941 L19,95.4216118 C17.6765564,96.4120504 16.0554475,97 14.322714,97 C10.4092899,97 7,94.0609096 7,90.517428 C7,86.9219912 10.3538424,84 14.3409533,84 C16.0364786,84 17.7509728,84.6043912 19,85.6461274 L19,86.7536298" id="Fill-8"></path>
                        <path d="M21.7986681,90.5003288 C21.7986681,93.6242222 24.3756259,96.243689 27.5,96.243689 C30.6087523,96.243689 33.2019828,93.6077806 33.2019828,90.5003288 C33.2019828,87.3751201 30.6087523,84.756311 27.5,84.756311 C24.3756259,84.756311 21.7986681,87.3751201 21.7986681,90.5003288 Z M34,90.5003288 C34,94.0609096 31.0240336,97 27.5,97 C23.9759664,97 21,94.0609096 21,90.5003288 C21,86.9384327 23.9596936,84 27.5,84 C31.0240336,84 34,86.9384327 34,90.5003288 Z" id="Fill-9"></path>
                        <path d="M41.091637,90.0699522 C41.9665966,90.0699522 42.8401003,90.0355214 43.5469104,89.465725 C44.2158687,88.9661404 44.5310579,88.1890839 44.5310579,87.4140528 C44.5310579,86.4486394 44.0484471,85.4825509 43.0446457,85.069381 C42.3007117,84.7412754 41.3522323,84.7757063 40.5347784,84.7757063 L37.8931576,84.7757063 L37.8931576,90.0699522 L41.091637,90.0699522 Z M46,97 L44.9772727,97 L40.4044808,90.8449834 L37.8931576,90.8449834 L37.8931576,97 L37,97 L37,84 L40.8135717,84 C41.9476707,84 43.0628437,84.017553 44.0105953,84.6555359 C45.0151246,85.3110719 45.4242155,86.3446718 45.4242155,87.4484836 C45.4242155,89.7074159 43.731802,90.8794142 41.40901,90.8449834 L46,97 Z" id="Fill-10"></path>
                        <path d="M51.6628204,90.0523993 C52.5907855,90.0523993 53.4245446,89.9484317 54.1626144,89.3442044 C54.7886755,88.827742 55.0913212,88.1553282 55.0913212,87.3971749 C55.0913212,86.5856876 54.7315586,85.7762256 54.0120333,85.2921687 C53.2917663,84.7939344 52.3823457,84.7757063 51.5114976,84.7757063 L47.9094206,84.7757063 L47.9094206,90.0523993 L51.6628204,90.0523993 Z M47.9094206,97 L47,97 L47,84 L51.6242479,84 C52.7428501,84 53.822138,84.0688617 54.7122723,84.7581533 C55.5838622,85.4312422 56,86.4135334 56,87.4309306 C56,88.3619132 55.6024067,89.3975384 54.80722,89.9997403 C53.9356301,90.6897071 52.7428501,90.8281055 51.6242479,90.8281055 L47.9094206,90.8281055 L47.9094206,97 Z" id="Fill-11"></path>
                        <path d="M56.7974062,90.5003288 C56.7974062,93.6242222 59.3738421,96.243689 62.5003255,96.243689 C65.6092334,96.243689 68.2025938,93.6077806 68.2025938,90.5003288 C68.2025938,87.3751201 65.6092334,84.756311 62.5003255,84.756311 C59.3738421,84.756311 56.7974062,87.3751201 56.7974062,90.5003288 Z M69,90.5003288 C69,94.0609096 66.0245356,97 62.5003255,97 C58.9761154,97 56,94.0609096 56,90.5003288 C56,86.9384327 58.9591908,84 62.5003255,84 C66.0245356,84 69,86.9384327 69,90.5003288 Z" id="Fill-12"></path>
                        <path d="M76.091968,90.0699522 C76.9662703,90.0699522 77.8391167,90.0355214 78.545984,89.465725 C79.2157243,88.9661404 79.5309391,88.1890839 79.5309391,87.4140528 C79.5309391,86.4486394 79.0475613,85.4825509 78.0436787,85.069381 C77.3004125,84.7412754 76.3518563,84.7757063 75.5343363,84.7757063 L72.8910459,84.7757063 L72.8910459,90.0699522 L76.091968,90.0699522 Z M81,97 L79.977918,97 L75.4040281,90.8449834 L72.8910459,90.8449834 L72.8910459,97 L72,97 L72,84 L75.8131521,84 C76.9473429,84 78.0626062,84.017553 79.0111623,84.6555359 C80.0150449,85.3110719 80.4241689,86.3446718 80.4241689,87.4484836 C80.4241689,89.7074159 78.7323465,90.8794142 76.4071827,90.8449834 L81,97 Z" id="Fill-13"></path>
                        <path d="M87.0093081,86.0355384 L84.1952839,92.1107872 L89.8047161,92.1107872 L87.0093081,86.0355384 Z M83.8527459,92.8609631 L81.9315545,97 L81,97 L87.0093081,84 L93,97 L92.0677009,97 L90.1472541,92.8609631 L83.8527459,92.8609631 Z" id="Fill-14"></path>
                        <polyline id="Fill-15" points="94.9376487 97 94.0623513 97 94.0623513 84.7757063 90 84.7757063 90 84 99 84 99 84.7757063 94.9376487 84.7757063 94.9376487 97"></polyline>
                        <polygon id="Fill-16" points="101 97 102 97 102 84 101 84"></polygon>
                        <path d="M104.798668,90.5003288 C104.798668,93.6242222 107.374975,96.243689 110.5,96.243689 C113.608752,96.243689 116.201983,93.6077806 116.201983,90.5003288 C116.201983,87.3751201 113.608752,84.756311 110.5,84.756311 C107.374975,84.756311 104.798668,87.3751201 104.798668,90.5003288 Z M117,90.5003288 C117,94.0609096 114.024034,97 110.5,97 C106.975966,97 104,94.0609096 104,90.5003288 C104,86.9384327 106.959694,84 110.5,84 C114.024034,84 117,86.9384327 117,90.5003288 Z" id="Fill-17"></path>
                        <polyline id="Fill-18" points="132 97 120.844623 85.9109677 120.844623 96.5877419 120 96.5877419 120 84 131.154687 95.0064516 131.154687 84.1645161 132 84.1645161 132 97"></polyline>
                        <path d="M7.79801722,108.499342 C7.79801722,111.624393 10.3743241,114.24307 13.5,114.24307 C16.6081013,114.24307 19.2019828,111.606637 19.2019828,108.499342 C19.2019828,105.375607 16.6081013,102.755615 13.5,102.755615 C10.3743241,102.755615 7.79801722,105.375607 7.79801722,108.499342 Z M20,108.499342 C20,112.059743 17.0240336,115 13.5,115 C9.97596635,115 7,112.059743 7,108.499342 C7,104.938942 9.95904266,102 13.5,102 C17.0240336,102 20,104.938942 20,108.499342 Z" id="Fill-19"></path>
                        <polyline id="Fill-20" points="24.8668621 102.775031 24.8668621 107.500156 30.873332 107.500156 30.873332 108.275187 24.8668621 108.275187 24.8668621 115 24 115 24 102 31 102 31 102.775031 24.8668621 102.775031"></polyline>
                        <polyline id="Fill-21" points="50 115 38.8459062 103.911518 38.8459062 114.587762 38 114.587762 38 102 49.1540938 113.006551 49.1540938 102.165153 50 102.165153 50 115"></polyline>
                        <polyline id="Fill-22" points="53.7579263 102.775031 53.7579263 107.500156 59.873885 107.500156 59.873885 108.275187 53.7579263 108.275187 53.7579263 114.223619 60 114.223619 60 115 53 115 53 102 60 102 60 102.775031 53.7579263 102.775031"></polyline>
                        <polyline id="Fill-23" points="66.5705437 112.594652 71.5264969 100 76.4824501 112.594652 80.1562285 100.698025 81 100.698025 76.5361321 115 71.4741913 102.203345 66.4287681 115 62 100.698025 62.8437715 100.698025 66.5705437 112.594652"></polyline>
                        <polyline id="Fill-24" points="87 102 87.9639069 102 92.0003559 108.586415 96.036805 102 97 102 92.4367481 109.447185 92.4367481 115 91.5639638 115 91.5639638 109.447185 87 102"></polyline>
                        <path d="M96.7980572,108.499342 C96.7980572,111.624393 99.374493,114.24307 102.499675,114.24307 C105.609233,114.24307 108.201943,111.606637 108.201943,108.499342 C108.201943,105.375607 105.609233,102.755615 102.499675,102.755615 C99.374493,102.755615 96.7980572,105.375607 96.7980572,108.499342 Z M109,108.499342 C109,112.059743 106.023885,115 102.499675,115 C98.9754644,115 96,112.059743 96,108.499342 C96,104.938942 98.9585399,102 102.499675,102 C106.023885,102 109,104.938942 109,108.499342 Z" id="Fill-25"></path>
                        <path d="M116.092696,108.069277 C116.965542,108.069277 117.839117,108.034171 118.546712,107.465725 C119.214996,106.96614 119.531667,106.189084 119.531667,105.414053 C119.531667,104.448639 119.048289,103.481876 118.044407,103.068031 C117.30114,102.741275 116.352584,102.775031 115.533608,102.775031 L112.891774,102.775031 L112.891774,108.069277 L116.092696,108.069277 Z M121,115 L119.978646,115 L115.404756,108.844983 L112.891774,108.844983 L112.891774,115 L112,115 L112,102 L115.812424,102 C116.947343,102 118.061878,102.016878 119.010434,102.655536 C120.015773,103.309047 120.423441,104.344672 120.423441,105.447808 C120.423441,107.706741 118.732347,108.878739 116.408639,108.844983 L121,115 Z" id="Fill-26"></path>
                        <polyline id="Fill-27" points="130.412185 102 131.581063 102 124.844467 108.258309 132 115 130.84971 115 124.241083 108.793675 123.875765 109.137308 123.875765 115 123 115 123 102 123.875765 102 123.875765 108.069277 130.412185 102"></polyline>
                    </g>
                </g>
            </g>
        </g>
    </g>
</svg>